<svg xmlns="http://www.w3.org/2000/svg" viewBox="0 0 1200 630" role="img" aria-label="Magenta abstract blog illustration">
  <defs>
    <linearGradient id="bg" x1="0%" y1="0%" x2="100%" y2="100%">
      <stop offset="0%" stop-color="#FFF0F7" />
      <stop offset="45%" stop-color="#FFD6EC" />
      <stop offset="100%" stop-color="#E6007E" />
    </linearGradient>
    <radialGradient id="glow" cx="50%" cy="45%" r="65%">
      <stop offset="0%" stop-color="#FF3DA5" stop-opacity="0.9" />
      <stop offset="55%" stop-color="#7A0F5B" stop-opacity="0.55" />
      <stop offset="100%" stop-color="#2A0A2E" stop-opacity="0" />
    </radialGradient>
  </defs>
  <rect width="1200" height="630" fill="url(#bg)" />
  <circle cx="980" cy="110" r="240" fill="#FF3DA5" opacity="0.2" />
  <circle cx="220" cy="520" r="260" fill="#FFF" opacity="0.18" />
  <rect x="92" y="84" width="1016" height="462" rx="38" fill="#fff" opacity="0.84" />
  <rect x="118" y="110" width="966" height="76" rx="22" fill="#2A0A2E" opacity="0.93" />
  <rect x="118" y="210" width="520" height="246" rx="30" fill="#FFF0F7" />
  <rect x="680" y="210" width="404" height="112" rx="30" fill="#FFD6EC" />
  <rect x="680" y="344" width="404" height="112" rx="30" fill="#FFE7F2" />
  <path d="M168 402 238 292l56 76 50-96 110 154" fill="none" stroke="#E6007E" stroke-width="18" stroke-linecap="round" stroke-linejoin="round" />
  <circle cx="886" cy="266" r="38" fill="#E6007E" />
  <circle cx="962" cy="402" r="38" fill="#FF3DA5" />
  <path d="M760 264h218M760 296h168M760 400h214M760 432h146" stroke="#2A0A2E" stroke-opacity=".45" stroke-width="10" stroke-linecap="round" />
  <circle cx="600" cy="314" r="210" fill="url(#glow)" />
</svg>
